<svg width="18" height="20" viewBox="0 0 18 20" fill="none" xmlns="http://www.w3.org/2000/svg">
<path fill-rule="evenodd" clip-rule="evenodd" d="M14.1968 6.94711C13.9954 7.10525 13.734 7.23177 13.4188 7.33442C13.4329 7.47721 13.4399 7.62185 13.4399 7.76834C13.4397 8.36942 13.3174 8.9642 13.0804 9.5166C12.8434 10.069 12.4967 10.5675 12.0614 10.9819C11.626 11.3964 11.1109 11.718 10.5475 11.9275C9.98411 12.1369 9.38402 12.2297 8.78366 12.2003C8.18329 12.1709 7.59515 12.0198 7.0549 11.7563C6.51465 11.4928 6.03355 11.1224 5.64075 10.6674C5.24796 10.2124 4.95166 9.68237 4.76982 9.10945C4.58798 8.53653 4.52439 7.93265 4.58291 7.33442C4.26774 7.23177 4.00639 7.10525 3.80552 6.94711C3.54473 6.74181 3.36994 6.46769 3.34941 6.1381C3.32999 5.83236 3.45095 5.57267 3.57191 5.38956C3.69128 5.21608 3.83308 5.05917 3.99362 4.92291C4.07205 4.85484 4.14714 4.79436 4.21891 4.74146C4.19745 4.62715 4.17489 4.49028 4.15121 4.33085C4.05341 3.63135 4.0052 2.92582 4.00694 2.21952C4.00694 2.04529 4.0813 1.91545 4.1157 1.86052C4.15898 1.79116 4.21003 1.73178 4.25664 1.68406C4.3493 1.58696 4.46916 1.48819 4.60066 1.39331C4.86701 1.20021 5.23323 0.983249 5.66825 0.780163C6.53553 0.3751 7.72686 0 9.00087 0C10.2749 0 11.4662 0.375655 12.3335 0.780163C12.7075 0.951136 13.0649 1.15639 13.4011 1.39331C13.5326 1.48819 13.6524 1.58751 13.7451 1.68406C13.7917 1.73178 13.8428 1.79116 13.886 1.86052C13.9204 1.91545 13.9948 2.04529 13.9948 2.21952C13.9948 3.10844 13.9227 3.82868 13.8505 4.33085C13.8269 4.49065 13.8043 4.62752 13.7828 4.74146C13.8539 4.79417 13.931 4.85466 14.0087 4.92291C14.1474 5.04442 14.3061 5.20257 14.4298 5.38956C14.5513 5.57267 14.6718 5.83236 14.6529 6.13865C14.6324 6.46769 14.4576 6.74181 14.1968 6.94711ZM5.11781 2.39598C5.12614 3.14396 5.18828 3.74878 5.24987 4.1716C5.26467 4.27148 5.27873 4.36063 5.29205 4.43905H12.7097C12.7234 4.36026 12.7374 4.27111 12.7519 4.1716C12.8129 3.74878 12.8756 3.14396 12.8839 2.39598C12.8407 2.35951 12.7961 2.32472 12.7502 2.29166C12.5499 2.14684 12.2458 1.96428 11.8641 1.78616C11.0967 1.42771 10.0685 1.10976 9.00087 1.10976C7.93328 1.10976 6.90509 1.42771 6.13769 1.78616C5.75593 1.96428 5.45185 2.14684 5.25209 2.2911C5.206 2.32451 5.16121 2.35913 5.11781 2.39598ZM4.99907 5.54881L4.9974 5.54992C4.90161 5.6137 4.80988 5.68338 4.72274 5.75856C4.62397 5.84512 4.54518 5.92946 4.49746 6.0027C4.48636 6.01934 4.47617 6.03657 4.46694 6.05431L4.49135 6.07484C4.57458 6.14031 4.75326 6.23631 5.10172 6.33119C5.17053 6.34969 5.24433 6.36782 5.32312 6.38557L5.32811 6.38668C5.60666 6.44827 5.94958 6.50321 6.36741 6.54649C6.95946 6.60808 7.70467 6.64859 8.63576 6.65746L9.00087 6.65857C10.7915 6.65857 11.9495 6.54704 12.6742 6.38668L12.6786 6.38557C12.7578 6.36819 12.8318 6.35006 12.9006 6.33119C13.2485 6.23686 13.4277 6.14031 13.5104 6.07484L13.5348 6.05431C13.5258 6.03658 13.5157 6.01936 13.5048 6.0027C13.4401 5.9122 13.3642 5.83018 13.279 5.75856C13.192 5.6834 13.1005 5.61372 13.0049 5.54992L13.0027 5.54881H4.99907ZM8.84994 7.76834C10.3159 7.76834 11.4523 7.69065 12.3235 7.55526C12.3279 7.62555 12.3302 7.69657 12.3302 7.76834C12.3298 8.21265 12.2404 8.6524 12.0674 9.06166C11.8944 9.47091 11.6413 9.8414 11.3229 10.1513C11.0044 10.4612 10.6272 10.7042 10.2134 10.866C9.79962 11.0278 9.35762 11.1052 8.91345 11.0935C8.46929 11.0819 8.03195 10.9814 7.62721 10.7981C7.22248 10.6148 6.85853 10.3523 6.55683 10.0261C6.25512 9.69992 6.02175 9.31665 5.87048 8.89888C5.71921 8.4811 5.65309 8.03727 5.67602 7.59355C6.48781 7.70563 7.52822 7.76834 8.84994 7.76834ZM4.6051 18.2428C4.57606 18.4493 4.5616 18.6575 4.56182 18.866V19.4208C4.56188 19.5428 4.52175 19.6614 4.44763 19.7583C4.3735 19.8552 4.26953 19.9249 4.15177 19.9568C4.03402 19.9886 3.90906 19.9808 3.79622 19.9344C3.68337 19.8881 3.58894 19.8059 3.52752 19.7005C3.15338 19.9028 2.71598 19.9542 2.30512 19.8442L1.23309 19.5568C0.806807 19.4424 0.443417 19.1633 0.222823 18.781C0.00222842 18.3987 -0.0575101 17.9445 0.0567422 17.5182L0.48733 15.9101C0.601636 15.4837 0.880624 15.1202 1.26293 14.8995C1.64524 14.6788 2.09956 14.619 2.52596 14.7332L3.59799 15.0201C3.97087 15.12 4.2805 15.3391 4.49579 15.6255C5.00955 14.9106 5.68619 14.3283 6.46971 13.9269C7.25322 13.5255 8.12107 13.3165 9.00143 13.3171C9.88131 13.3167 10.7487 13.5257 11.5317 13.9269C12.3148 14.3281 12.9912 14.91 13.5048 15.6243C13.7283 15.329 14.0438 15.1165 14.4015 15.0206L15.4736 14.7338C15.8999 14.6195 16.3541 14.6792 16.7364 14.8998C17.1187 15.1204 17.3978 15.4838 17.5122 15.9101L17.9433 17.5187C17.9999 17.7299 18.0143 17.9501 17.9857 18.1669C17.9572 18.3836 17.8862 18.5926 17.7768 18.7819C17.6675 18.9712 17.5219 19.1371 17.3485 19.2702C17.175 19.4032 16.9771 19.5008 16.7659 19.5573L15.6944 19.8442C15.2843 19.9543 14.8476 19.9035 14.4737 19.7022C14.4121 19.8074 14.3175 19.8894 14.2046 19.9355C14.0917 19.9816 13.9668 19.9893 13.8491 19.9572C13.7314 19.9252 13.6276 19.8553 13.5536 19.7584C13.4797 19.6614 13.4397 19.5428 13.4399 19.4208V18.866C13.4401 18.6575 13.4257 18.4493 13.3966 18.2428L10.509 19.0169C10.375 19.3038 10.1619 19.5465 9.89477 19.7166C9.62764 19.8866 9.31754 19.9769 9.00087 19.9769C8.6842 19.9769 8.37411 19.8866 8.10697 19.7166C7.83983 19.5465 7.62674 19.3038 7.4927 19.0169L4.6051 18.2428ZM7.40281 17.8433C7.477 17.5902 7.61027 17.3584 7.79164 17.1669C7.97301 16.9754 8.19729 16.8297 8.44599 16.7419V14.4613C7.66771 14.5598 6.92934 14.8624 6.30591 15.3386C5.68247 15.8148 5.19617 16.4475 4.89642 17.1725L7.40281 17.8433ZM13.1053 17.1719C12.8055 16.4471 12.3192 15.8145 11.6957 15.3384C11.0723 14.8623 10.334 14.5597 9.55575 14.4613V16.7413C10.0574 16.9189 10.4491 17.3295 10.5989 17.8439L13.1053 17.1719ZM14.2967 16.7724C14.2778 16.702 14.2729 16.6286 14.2824 16.5563C14.2919 16.4841 14.3156 16.4144 14.352 16.3513C14.3884 16.2881 14.4369 16.2328 14.4948 16.1884C14.5526 16.1441 14.6186 16.1115 14.689 16.0927L15.761 15.8052C15.9031 15.7673 16.0544 15.7873 16.1818 15.8608C16.3091 15.9344 16.4021 16.0555 16.4402 16.1975L16.8713 17.8056C16.8902 17.876 16.895 17.9494 16.8855 18.0217C16.876 18.0939 16.8524 18.1636 16.816 18.2267C16.7795 18.2898 16.731 18.3452 16.6732 18.3895C16.6154 18.4339 16.5494 18.4664 16.479 18.4853L15.407 18.7727C15.3365 18.7916 15.2631 18.7964 15.1908 18.7869C15.1185 18.7774 15.0488 18.7537 14.9857 18.7172C14.9226 18.6807 14.8672 18.6321 14.8229 18.5743C14.7786 18.5164 14.7461 18.4503 14.7272 18.3799L14.2967 16.7724ZM2.23909 15.8052C2.16866 15.7863 2.09519 15.7814 2.02287 15.7908C1.95055 15.8003 1.8808 15.8239 1.81762 15.8603C1.75443 15.8968 1.69905 15.9453 1.65464 16.0032C1.61023 16.061 1.57767 16.1271 1.55881 16.1975L1.12822 17.805C1.10934 17.8754 1.10451 17.9488 1.114 18.0211C1.1235 18.0934 1.14714 18.163 1.18357 18.2262C1.22 18.2893 1.2685 18.3446 1.32632 18.389C1.38413 18.4333 1.45012 18.4659 1.52052 18.4848L2.59255 18.7722C2.66294 18.7911 2.73636 18.7959 2.80862 18.7864C2.88088 18.7769 2.95056 18.7533 3.01368 18.7168C3.0768 18.6804 3.13212 18.6319 3.17649 18.5741C3.22087 18.5163 3.25341 18.4503 3.27228 18.3799L3.70287 16.7718C3.72183 16.7014 3.72673 16.6279 3.71727 16.5556C3.70781 16.4833 3.68419 16.4135 3.64775 16.3504C3.61132 16.2872 3.56278 16.2318 3.50492 16.1874C3.44707 16.143 3.38102 16.1104 3.31057 16.0916L2.23909 15.8052ZM9.55575 18.3111C9.55575 18.4582 9.49729 18.5994 9.39323 18.7034C9.28917 18.8075 9.14804 18.866 9.00087 18.866C8.85371 18.866 8.71257 18.8075 8.60851 18.7034C8.50445 18.5994 8.44599 18.4582 8.44599 18.3111C8.44599 18.1639 8.50445 18.0228 8.60851 17.9187C8.71257 17.8147 8.85371 17.7562 9.00087 17.7562C9.14804 17.7562 9.28917 17.8147 9.39323 17.9187C9.49729 18.0228 9.55575 18.1639 9.55575 18.3111Z" fill="white"/>
</svg>
