<svg width="22" height="17" viewBox="0 0 22 17" fill="none" xmlns="http://www.w3.org/2000/svg">
<mask id="path-1-inside-1_602_631" fill="white">
<path d="M21.6207 6.95455H20.35L17.6161 0.688697C17.5266 0.483231 17.3803 0.30873 17.195 0.186451C17.0098 0.0641725 16.7937 -0.000606739 16.573 4.28296e-06H5.42414C5.20343 -0.000606739 4.98731 0.0641725 4.80211 0.186451C4.6169 0.30873 4.4706 0.483231 4.38103 0.688697L1.65 6.95455H0.37931C0.278711 6.95455 0.182232 6.99525 0.111097 7.06771C0.0399629 7.14017 0 7.23844 0 7.34091C0 7.44338 0.0399629 7.54166 0.111097 7.61411C0.182232 7.68657 0.278711 7.72728 0.37931 7.72728H1.51724V15.8409C1.51724 16.1483 1.63713 16.4431 1.85053 16.6605C2.06394 16.8779 2.35337 17 2.65517 17H4.93103C5.23283 17 5.52227 16.8779 5.73567 16.6605C5.94908 16.4431 6.06897 16.1483 6.06897 15.8409V13.9091H15.931V15.8409C15.931 16.1483 16.0509 16.4431 16.2643 16.6605C16.4777 16.8779 16.7672 17 17.069 17H19.3448C19.6466 17 19.9361 16.8779 20.1495 16.6605C20.3629 16.4431 20.4828 16.1483 20.4828 15.8409V7.72728H21.6207C21.7213 7.72728 21.8178 7.68657 21.8889 7.61411C21.96 7.54166 22 7.44338 22 7.34091C22 7.23844 21.96 7.14017 21.8889 7.06771C21.8178 6.99525 21.7213 6.95455 21.6207 6.95455ZM5.07707 1.00262C5.10683 0.934169 5.15548 0.876003 5.2171 0.835191C5.27871 0.79438 5.35064 0.77268 5.42414 0.772731H16.5759C16.6494 0.77268 16.7213 0.79438 16.7829 0.835191C16.8445 0.876003 16.8932 0.934169 16.9229 1.00262L19.5193 6.95455H2.48069L5.07707 1.00262ZM5.31034 15.8409C5.31034 15.9434 5.27038 16.0417 5.19925 16.1141C5.12811 16.1866 5.03163 16.2273 4.93103 16.2273H2.65517C2.55457 16.2273 2.45809 16.1866 2.38696 16.1141C2.31582 16.0417 2.27586 15.9434 2.27586 15.8409V13.9091H5.31034V15.8409ZM19.3448 16.2273H17.069C16.9684 16.2273 16.8719 16.1866 16.8008 16.1141C16.7296 16.0417 16.6897 15.9434 16.6897 15.8409V13.9091H19.7241V15.8409C19.7241 15.9434 19.6842 16.0417 19.613 16.1141C19.5419 16.1866 19.4454 16.2273 19.3448 16.2273ZM19.7241 13.1364H2.27586V7.72728H19.7241V13.1364ZM4.55172 10.4318C4.55172 10.3293 4.59169 10.2311 4.66282 10.1586C4.73396 10.0862 4.83044 10.0455 4.93103 10.0455H6.44828C6.54888 10.0455 6.64535 10.0862 6.71649 10.1586C6.78762 10.2311 6.82759 10.3293 6.82759 10.4318C6.82759 10.5343 6.78762 10.6326 6.71649 10.705C6.64535 10.7775 6.54888 10.8182 6.44828 10.8182H4.93103C4.83044 10.8182 4.73396 10.7775 4.66282 10.705C4.59169 10.6326 4.55172 10.5343 4.55172 10.4318ZM15.1724 10.4318C15.1724 10.3293 15.2124 10.2311 15.2835 10.1586C15.3546 10.0862 15.4511 10.0455 15.5517 10.0455H17.069C17.1696 10.0455 17.266 10.0862 17.3372 10.1586C17.4083 10.2311 17.4483 10.3293 17.4483 10.4318C17.4483 10.5343 17.4083 10.6326 17.3372 10.705C17.266 10.7775 17.1696 10.8182 17.069 10.8182H15.5517C15.4511 10.8182 15.3546 10.7775 15.2835 10.705C15.2124 10.6326 15.1724 10.5343 15.1724 10.4318Z"/>
</mask>
<path d="M21.6207 6.95455H20.35L17.6161 0.688697C17.5266 0.483231 17.3803 0.30873 17.195 0.186451C17.0098 0.0641725 16.7937 -0.000606739 16.573 4.28296e-06H5.42414C5.20343 -0.000606739 4.98731 0.0641725 4.80211 0.186451C4.6169 0.30873 4.4706 0.483231 4.38103 0.688697L1.65 6.95455H0.37931C0.278711 6.95455 0.182232 6.99525 0.111097 7.06771C0.0399629 7.14017 0 7.23844 0 7.34091C0 7.44338 0.0399629 7.54166 0.111097 7.61411C0.182232 7.68657 0.278711 7.72728 0.37931 7.72728H1.51724V15.8409C1.51724 16.1483 1.63713 16.4431 1.85053 16.6605C2.06394 16.8779 2.35337 17 2.65517 17H4.93103C5.23283 17 5.52227 16.8779 5.73567 16.6605C5.94908 16.4431 6.06897 16.1483 6.06897 15.8409V13.9091H15.931V15.8409C15.931 16.1483 16.0509 16.4431 16.2643 16.6605C16.4777 16.8779 16.7672 17 17.069 17H19.3448C19.6466 17 19.9361 16.8779 20.1495 16.6605C20.3629 16.4431 20.4828 16.1483 20.4828 15.8409V7.72728H21.6207C21.7213 7.72728 21.8178 7.68657 21.8889 7.61411C21.96 7.54166 22 7.44338 22 7.34091C22 7.23844 21.96 7.14017 21.8889 7.06771C21.8178 6.99525 21.7213 6.95455 21.6207 6.95455ZM5.07707 1.00262C5.10683 0.934169 5.15548 0.876003 5.2171 0.835191C5.27871 0.79438 5.35064 0.77268 5.42414 0.772731H16.5759C16.6494 0.77268 16.7213 0.79438 16.7829 0.835191C16.8445 0.876003 16.8932 0.934169 16.9229 1.00262L19.5193 6.95455H2.48069L5.07707 1.00262ZM5.31034 15.8409C5.31034 15.9434 5.27038 16.0417 5.19925 16.1141C5.12811 16.1866 5.03163 16.2273 4.93103 16.2273H2.65517C2.55457 16.2273 2.45809 16.1866 2.38696 16.1141C2.31582 16.0417 2.27586 15.9434 2.27586 15.8409V13.9091H5.31034V15.8409ZM19.3448 16.2273H17.069C16.9684 16.2273 16.8719 16.1866 16.8008 16.1141C16.7296 16.0417 16.6897 15.9434 16.6897 15.8409V13.9091H19.7241V15.8409C19.7241 15.9434 19.6842 16.0417 19.613 16.1141C19.5419 16.1866 19.4454 16.2273 19.3448 16.2273ZM19.7241 13.1364H2.27586V7.72728H19.7241V13.1364ZM4.55172 10.4318C4.55172 10.3293 4.59169 10.2311 4.66282 10.1586C4.73396 10.0862 4.83044 10.0455 4.93103 10.0455H6.44828C6.54888 10.0455 6.64535 10.0862 6.71649 10.1586C6.78762 10.2311 6.82759 10.3293 6.82759 10.4318C6.82759 10.5343 6.78762 10.6326 6.71649 10.705C6.64535 10.7775 6.54888 10.8182 6.44828 10.8182H4.93103C4.83044 10.8182 4.73396 10.7775 4.66282 10.705C4.59169 10.6326 4.55172 10.5343 4.55172 10.4318ZM15.1724 10.4318C15.1724 10.3293 15.2124 10.2311 15.2835 10.1586C15.3546 10.0862 15.4511 10.0455 15.5517 10.0455H17.069C17.1696 10.0455 17.266 10.0862 17.3372 10.1586C17.4083 10.2311 17.4483 10.3293 17.4483 10.4318C17.4483 10.5343 17.4083 10.6326 17.3372 10.705C17.266 10.7775 17.1696 10.8182 17.069 10.8182H15.5517C15.4511 10.8182 15.3546 10.7775 15.2835 10.705C15.2124 10.6326 15.1724 10.5343 15.1724 10.4318Z" fill="white"/>
<path d="M20.35 6.95455L19.4334 7.35445L19.6953 7.95455H20.35V6.95455ZM17.6161 0.688697L16.6994 1.08831L16.6996 1.0886L17.6161 0.688697ZM16.573 4.28296e-06V1.00001L16.5758 1L16.573 4.28296e-06ZM5.42414 4.28296e-06L5.42137 1H5.42414V4.28296e-06ZM4.38103 0.688697L3.46435 0.289084L3.46433 0.289141L4.38103 0.688697ZM1.65 6.95455V7.95455H2.305L2.56671 7.3541L1.65 6.95455ZM0 7.34091H-1H0ZM1.51724 7.72728H2.51724V6.72728H1.51724V7.72728ZM4.93103 17V18V17ZM6.06897 15.8409H7.06897H6.06897ZM6.06897 13.9091V12.9091H5.06897V13.9091H6.06897ZM15.931 13.9091H16.931V12.9091H15.931V13.9091ZM19.3448 17V18V17ZM20.4828 7.72728V6.72728H19.4828V7.72728H20.4828ZM5.07707 1.00262L5.99366 1.40246L5.99411 1.40141L5.07707 1.00262ZM5.42414 0.772731L5.42344 1.77273H5.42414V0.772731ZM16.5759 0.772731V1.77273L16.5766 1.77273L16.5759 0.772731ZM16.9229 1.00262L16.0059 1.40141L16.0063 1.40246L16.9229 1.00262ZM19.5193 6.95455V7.95455H21.0465L20.4359 6.55471L19.5193 6.95455ZM2.48069 6.95455L1.5641 6.55471L0.95346 7.95455H2.48069V6.95455ZM2.27586 13.9091V12.9091H1.27586V13.9091H2.27586ZM5.31034 13.9091H6.31034V12.9091H5.31034V13.9091ZM16.6897 13.9091V12.9091H15.6897V13.9091H16.6897ZM19.7241 13.9091H20.7241V12.9091H19.7241V13.9091ZM19.7241 13.1364V14.1364H20.7241V13.1364H19.7241ZM2.27586 13.1364H1.27586V14.1364H2.27586V13.1364ZM2.27586 7.72728V6.72728H1.27586V7.72728H2.27586ZM19.7241 7.72728H20.7241V6.72728H19.7241V7.72728ZM21.6207 6.95455V5.95455H20.35V6.95455V7.95455H21.6207V6.95455ZM20.35 6.95455L21.2666 6.55464L18.5327 0.288791L17.6161 0.688697L16.6996 1.0886L19.4334 7.35445L20.35 6.95455ZM17.6161 0.688697L18.5328 0.289084C18.3668 -0.0917866 18.0943 -0.41811 17.746 -0.648068L17.195 0.186451L16.6441 1.02097C16.6662 1.03557 16.6863 1.05825 16.6994 1.08831L17.6161 0.688697ZM17.195 0.186451L17.746 -0.648068C17.3975 -0.878165 16.989 -1.00115 16.5702 -0.999992L16.573 4.28296e-06L16.5758 1C16.5985 0.999938 16.6222 1.00651 16.6441 1.02097L17.195 0.186451ZM16.573 4.28296e-06V-0.999996H5.42414V4.28296e-06V1H16.573V4.28296e-06ZM5.42414 4.28296e-06L5.42691 -0.999992C5.00819 -1.00115 4.59964 -0.878165 4.25113 -0.648068L4.80211 0.186451L5.35309 1.02097C5.37499 1.00651 5.39867 0.999938 5.42137 1L5.42414 4.28296e-06ZM4.80211 0.186451L4.25113 -0.648068C3.90283 -0.41811 3.63039 -0.0917866 3.46435 0.289084L4.38103 0.688697L5.29772 1.08831C5.31082 1.05825 5.33097 1.03557 5.35309 1.02097L4.80211 0.186451ZM4.38103 0.688697L3.46433 0.289141L0.733291 6.55499L1.65 6.95455L2.56671 7.3541L5.29774 1.08825L4.38103 0.688697ZM1.65 6.95455V5.95455H0.37931V6.95455V7.95455H1.65V6.95455ZM0.37931 6.95455V5.95455C0.00748917 5.95455 -0.345299 6.10517 -0.602493 6.36715L0.111097 7.06771L0.824688 7.76827C0.709763 7.88534 0.549933 7.95455 0.37931 7.95455V6.95455ZM0.111097 7.06771L-0.602493 6.36715C-0.859072 6.6285 -1 6.97911 -1 7.34091H0H1C1 7.49777 0.938998 7.65184 0.824688 7.76827L0.111097 7.06771ZM0 7.34091H-1C-1 7.70271 -0.859072 8.05332 -0.602493 8.31468L0.111097 7.61411L0.824688 6.91355C0.938998 7.02998 1 7.18405 1 7.34091H0ZM0.111097 7.61411L-0.602493 8.31468C-0.345299 8.57665 0.00748917 8.72727 0.37931 8.72727V7.72728V6.72728C0.549933 6.72728 0.709763 6.79649 0.824688 6.91355L0.111097 7.61411ZM0.37931 7.72728V8.72727H1.51724V7.72728V6.72728H0.37931V7.72728ZM1.51724 7.72728H0.517241V15.8409H1.51724H2.51724V7.72728H1.51724ZM1.51724 15.8409H0.517241C0.517241 16.4077 0.738096 16.9548 1.13694 17.3611L1.85053 16.6605L2.56412 15.9599C2.53616 15.9315 2.51724 15.889 2.51724 15.8409H1.51724ZM1.85053 16.6605L1.13694 17.3611C1.5364 17.768 2.08215 18 2.65517 18V17V16C2.6246 16 2.59147 15.9878 2.56412 15.9599L1.85053 16.6605ZM2.65517 17V18H4.93103V17V16H2.65517V17ZM4.93103 17V18C5.50406 18 6.0498 17.768 6.44926 17.3611L5.73567 16.6605L5.02208 15.9599C4.99474 15.9878 4.96161 16 4.93103 16V17ZM5.73567 16.6605L6.44926 17.3611C6.84811 16.9548 7.06897 16.4077 7.06897 15.8409H6.06897H5.06897C5.06897 15.889 5.05004 15.9315 5.02208 15.9599L5.73567 16.6605ZM6.06897 15.8409H7.06897V13.9091H6.06897H5.06897V15.8409H6.06897ZM6.06897 13.9091V14.9091H15.931V13.9091V12.9091H6.06897V13.9091ZM15.931 13.9091H14.931V15.8409H15.931H16.931V13.9091H15.931ZM15.931 15.8409H14.931C14.931 16.4077 15.1519 16.9548 15.5507 17.3611L16.2643 16.6605L16.9779 15.9599C16.95 15.9315 16.931 15.889 16.931 15.8409H15.931ZM16.2643 16.6605L15.5507 17.3611C15.9502 17.768 16.4959 18 17.069 18V17V16C17.0384 16 17.0053 15.9878 16.9779 15.9599L16.2643 16.6605ZM17.069 17V18H19.3448V17V16H17.069V17ZM19.3448 17V18C19.9179 18 20.4636 17.768 20.8631 17.3611L20.1495 16.6605L19.4359 15.9599C19.4085 15.9878 19.3754 16 19.3448 16V17ZM20.1495 16.6605L20.8631 17.3611C21.2619 16.9548 21.4828 16.4077 21.4828 15.8409H20.4828H19.4828C19.4828 15.889 19.4638 15.9315 19.4359 15.9599L20.1495 16.6605ZM20.4828 15.8409H21.4828V7.72728H20.4828H19.4828V15.8409H20.4828ZM20.4828 7.72728V8.72727H21.6207V7.72728V6.72728H20.4828V7.72728ZM21.6207 7.72728V8.72727C21.9925 8.72727 22.3453 8.57665 22.6025 8.31468L21.8889 7.61411L21.1753 6.91355C21.2902 6.79649 21.4501 6.72728 21.6207 6.72728V7.72728ZM21.8889 7.61411L22.6025 8.31468C22.8591 8.05332 23 7.70271 23 7.34091H22H21C21 7.18405 21.061 7.02999 21.1753 6.91355L21.8889 7.61411ZM22 7.34091H23C23 6.97911 22.8591 6.6285 22.6025 6.36715L21.8889 7.06771L21.1753 7.76827C21.061 7.65184 21 7.49777 21 7.34091H22ZM21.8889 7.06771L22.6025 6.36715C22.3453 6.10517 21.9925 5.95455 21.6207 5.95455V6.95455V7.95455C21.4501 7.95455 21.2902 7.88534 21.1753 7.76827L21.8889 7.06771ZM5.07707 1.00262L5.99411 1.40141C5.94765 1.50825 5.87046 1.6019 5.76931 1.66889L5.2171 0.835191L4.66488 0.00148944C4.44051 0.150109 4.26602 0.360083 4.16003 0.603826L5.07707 1.00262ZM5.2171 0.835191L5.76931 1.66889C5.66796 1.73603 5.54776 1.77282 5.42344 1.77273L5.42414 0.772731L5.42483 -0.227268C5.15353 -0.227457 4.88947 -0.147268 4.66488 0.00148944L5.2171 0.835191ZM5.42414 0.772731V1.77273H16.5759V0.772731V-0.227269H5.42414V0.772731ZM16.5759 0.772731L16.5766 1.77273C16.4522 1.77282 16.332 1.73603 16.2307 1.66889L16.7829 0.835191L17.3351 0.00148944C17.1105 -0.147269 16.8465 -0.227457 16.5752 -0.227268L16.5759 0.772731ZM16.7829 0.835191L16.2307 1.66889C16.1295 1.6019 16.0524 1.50825 16.0059 1.40141L16.9229 1.00262L17.84 0.603826C17.734 0.360083 17.5595 0.150109 17.3351 0.00148944L16.7829 0.835191ZM16.9229 1.00262L16.0063 1.40246L18.6027 7.35439L19.5193 6.95455L20.4359 6.55471L17.8395 0.60278L16.9229 1.00262ZM19.5193 6.95455V5.95455H2.48069V6.95455V7.95455H19.5193V6.95455ZM2.48069 6.95455L3.39728 7.35439L5.99366 1.40246L5.07707 1.00262L4.16048 0.60278L1.5641 6.55471L2.48069 6.95455ZM5.31034 15.8409H4.31034C4.31034 15.684 4.37135 15.53 4.48566 15.4135L5.19925 16.1141L5.91284 16.8147C6.16942 16.5533 6.31034 16.2027 6.31034 15.8409H5.31034ZM5.19925 16.1141L4.48566 15.4135C4.60058 15.2965 4.76041 15.2273 4.93103 15.2273V16.2273V17.2273C5.30286 17.2273 5.65564 17.0767 5.91284 16.8147L5.19925 16.1141ZM4.93103 16.2273V15.2273H2.65517V16.2273V17.2273H4.93103V16.2273ZM2.65517 16.2273V15.2273C2.8258 15.2273 2.98563 15.2965 3.10055 15.4135L2.38696 16.1141L1.67337 16.8147C1.93056 17.0766 2.28335 17.2273 2.65517 17.2273V16.2273ZM2.38696 16.1141L3.10055 15.4135C3.21486 15.53 3.27586 15.684 3.27586 15.8409H2.27586H1.27586C1.27586 16.2027 1.41679 16.5533 1.67337 16.8147L2.38696 16.1141ZM2.27586 15.8409H3.27586V13.9091H2.27586H1.27586V15.8409H2.27586ZM2.27586 13.9091V14.9091H5.31034V13.9091V12.9091H2.27586V13.9091ZM5.31034 13.9091H4.31034V15.8409H5.31034H6.31034V13.9091H5.31034ZM19.3448 16.2273V15.2273H17.069V16.2273V17.2273H19.3448V16.2273ZM17.069 16.2273V15.2273C17.2396 15.2273 17.3994 15.2965 17.5143 15.4135L16.8008 16.1141L16.0872 16.8147C16.3444 17.0767 16.6971 17.2273 17.069 17.2273V16.2273ZM16.8008 16.1141L17.5143 15.4135C17.6287 15.53 17.6897 15.684 17.6897 15.8409H16.6897H15.6897C15.6897 16.2027 15.8306 16.5533 16.0872 16.8147L16.8008 16.1141ZM16.6897 15.8409H17.6897V13.9091H16.6897H15.6897V15.8409H16.6897ZM16.6897 13.9091V14.9091H19.7241V13.9091V12.9091H16.6897V13.9091ZM19.7241 13.9091H18.7241V15.8409H19.7241H20.7241V13.9091H19.7241ZM19.7241 15.8409H18.7241C18.7241 15.684 18.7851 15.53 18.8995 15.4135L19.613 16.1141L20.3266 16.8147C20.5832 16.5533 20.7241 16.2027 20.7241 15.8409H19.7241ZM19.613 16.1141L18.8995 15.4135C19.0144 15.2965 19.1742 15.2273 19.3448 15.2273V16.2273V17.2273C19.7166 17.2273 20.0694 17.0767 20.3266 16.8147L19.613 16.1141ZM19.7241 13.1364V12.1364H2.27586V13.1364V14.1364H19.7241V13.1364ZM2.27586 13.1364H3.27586V7.72728H2.27586H1.27586V13.1364H2.27586ZM2.27586 7.72728V8.72727H19.7241V7.72728V6.72728H2.27586V7.72728ZM19.7241 7.72728H18.7241V13.1364H19.7241H20.7241V7.72728H19.7241ZM4.55172 10.4318H5.55172C5.55172 10.5887 5.49072 10.7427 5.37641 10.8592L4.66282 10.1586L3.94923 9.45806C3.69265 9.71941 3.55172 10.07 3.55172 10.4318H4.55172ZM4.66282 10.1586L5.37641 10.8592C5.26149 10.9762 5.10166 11.0455 4.93103 11.0455V10.0455V9.04546C4.55921 9.04546 4.20642 9.19608 3.94923 9.45806L4.66282 10.1586ZM4.93103 10.0455V11.0455H6.44828V10.0455V9.04546H4.93103V10.0455ZM6.44828 10.0455V11.0455C6.27765 11.0455 6.11782 10.9762 6.0029 10.8592L6.71649 10.1586L7.43008 9.45806C7.17288 9.19608 6.8201 9.04546 6.44828 9.04546V10.0455ZM6.71649 10.1586L6.0029 10.8592C5.88859 10.7427 5.82759 10.5887 5.82759 10.4318H6.82759H7.82759C7.82759 10.07 7.68666 9.71941 7.43008 9.45806L6.71649 10.1586ZM6.82759 10.4318H5.82759C5.82759 10.275 5.88859 10.1209 6.0029 10.0045L6.71649 10.705L7.43008 11.4056C7.68666 11.1442 7.82759 10.7936 7.82759 10.4318H6.82759ZM6.71649 10.705L6.0029 10.0045C6.11782 9.88739 6.27765 9.81818 6.44828 9.81818V10.8182V11.8182C6.8201 11.8182 7.17288 11.6676 7.43008 11.4056L6.71649 10.705ZM6.44828 10.8182V9.81818H4.93103V10.8182V11.8182H6.44828V10.8182ZM4.93103 10.8182V9.81818C5.10166 9.81818 5.26149 9.8874 5.37641 10.0045L4.66282 10.705L3.94923 11.4056C4.20642 11.6676 4.55921 11.8182 4.93103 11.8182V10.8182ZM4.66282 10.705L5.37641 10.0045C5.49072 10.1209 5.55172 10.275 5.55172 10.4318H4.55172H3.55172C3.55172 10.7936 3.69265 11.1442 3.94923 11.4056L4.66282 10.705ZM15.1724 10.4318H16.1724C16.1724 10.5887 16.1114 10.7427 15.9971 10.8592L15.2835 10.1586L14.5699 9.45806C14.3133 9.71941 14.1724 10.07 14.1724 10.4318H15.1724ZM15.2835 10.1586L15.9971 10.8592C15.8822 10.9762 15.7223 11.0455 15.5517 11.0455V10.0455V9.04546C15.1799 9.04546 14.8271 9.19608 14.5699 9.45806L15.2835 10.1586ZM15.5517 10.0455V11.0455H17.069V10.0455V9.04546H15.5517V10.0455ZM17.069 10.0455V11.0455C16.8983 11.0455 16.7385 10.9762 16.6236 10.8592L17.3372 10.1586L18.0508 9.45806C17.7936 9.19608 17.4408 9.04546 17.069 9.04546V10.0455ZM17.3372 10.1586L16.6236 10.8592C16.5093 10.7427 16.4483 10.5887 16.4483 10.4318H17.4483H18.4483C18.4483 10.07 18.3074 9.71941 18.0508 9.45806L17.3372 10.1586ZM17.4483 10.4318H16.4483C16.4483 10.275 16.5093 10.1209 16.6236 10.0045L17.3372 10.705L18.0508 11.4056C18.3074 11.1442 18.4483 10.7936 18.4483 10.4318H17.4483ZM17.3372 10.705L16.6236 10.0045C16.7385 9.88739 16.8983 9.81818 17.069 9.81818V10.8182V11.8182C17.4408 11.8182 17.7936 11.6676 18.0508 11.4056L17.3372 10.705ZM17.069 10.8182V9.81818H15.5517V10.8182V11.8182H17.069V10.8182ZM15.5517 10.8182V9.81818C15.7223 9.81818 15.8822 9.88739 15.9971 10.0045L15.2835 10.705L14.5699 11.4056C14.8271 11.6676 15.1799 11.8182 15.5517 11.8182V10.8182ZM15.2835 10.705L15.9971 10.0045C16.1114 10.1209 16.1724 10.275 16.1724 10.4318H15.1724H14.1724C14.1724 10.7936 14.3133 11.1442 14.5699 11.4056L15.2835 10.705Z" fill="white" mask="url(#path-1-inside-1_602_631)"/>
</svg>
