<svg width="6" height="6" viewBox="0 0 6 6" fill="none" xmlns="http://www.w3.org/2000/svg">
<path d="M2.96875 5.9375C2.18139 5.9375 1.42628 5.62472 0.869527 5.06797C0.312778 4.51122 0 3.75611 0 2.96875C0 2.18139 0.312778 1.42628 0.869527 0.869527C1.42628 0.312778 2.18139 0 2.96875 0C3.75611 0 4.51122 0.312778 5.06797 0.869527C5.62472 1.42628 5.9375 2.18139 5.9375 2.96875C5.9375 3.75611 5.62472 4.51122 5.06797 5.06797C4.51122 5.62472 3.75611 5.9375 2.96875 5.9375ZM2.96875 4.75C3.44117 4.75 3.89423 4.56233 4.22828 4.22828C4.56233 3.89423 4.75 3.44117 4.75 2.96875C4.75 2.49633 4.56233 2.04327 4.22828 1.70922C3.89423 1.37517 3.44117 1.1875 2.96875 1.1875C2.49633 1.1875 2.04327 1.37517 1.70922 1.70922C1.37517 2.04327 1.1875 2.49633 1.1875 2.96875C1.1875 3.44117 1.37517 3.89423 1.70922 4.22828C2.04327 4.56233 2.49633 4.75 2.96875 4.75Z" fill="white"/>
</svg>
