<svg width="21" height="17" viewBox="0 0 21 17" fill="none" xmlns="http://www.w3.org/2000/svg">
<path d="M20.5 13.1153C20.5 13.3715 20.4487 13.6278 20.3463 13.8635C20.2471 14.0998 20.1046 14.3153 19.926 14.499C19.7405 14.6743 19.5252 14.8168 19.2905 14.9193C19.0498 15.0173 18.7919 15.066 18.532 15.0628C17.372 15.0432 16.2134 15.1532 15.0778 15.3908C13.7321 15.5495 12.4357 15.9933 11.275 16.6925V1.40981C12.3933 0.876814 13.5915 0.530365 14.8215 0.384815C16.0733 0.13633 17.3482 0.0229305 18.6243 0.0465656C19.1326 0.0747844 19.6102 0.298891 19.9568 0.671815C20.295 1.03261 20.4826 1.50924 20.4795 2.00431L20.5 13.1153ZM9.22502 1.40981V16.6925C8.0835 16 6.8086 15.5564 5.48377 15.3908C4.32685 15.1568 3.14827 15.0469 1.96803 15.0628C1.70815 15.066 1.45026 15.0173 1.20953 14.9193C0.975394 14.8163 0.760495 14.6742 0.574031 14.499C0.391259 14.3188 0.248125 14.1023 0.153782 13.8635C0.0508947 13.6276 -0.00147764 13.3727 3.17197e-05 13.1153V1.94281C0.00164603 1.4487 0.191021 0.973667 0.529792 0.613961C0.868562 0.254256 1.3314 0.0367703 1.82453 0.00556547C3.12802 -0.0273872 4.43109 0.0860728 5.70927 0.343815C6.93279 0.498945 8.12138 0.859332 9.22502 1.40981Z" fill="white"/>
</svg>
