<svg width="24" height="24" viewBox="0 0 24 24" fill="none" xmlns="http://www.w3.org/2000/svg">
<path d="M14.25 6.2745V1.2255C14.25 0.8685 14.367 0.575 14.601 0.345C14.835 0.115 15.125 0 15.471 0H22.791C23.138 0 23.426 0.115 23.655 0.345C23.884 0.575 23.999 0.8685 24 1.2255V6.2745C24 6.6325 23.883 6.926 23.649 7.155C23.415 7.385 23.125 7.5 22.779 7.5H15.459C15.113 7.5 14.825 7.385 14.595 7.155C14.365 6.925 14.25 6.6315 14.25 6.2745ZM0 10.8V1.2C0 0.86 0.117 0.575 0.351 0.345C0.585 0.115 0.875 0 1.221 0H8.541C8.888 0 9.176 0.115 9.405 0.345C9.634 0.575 9.749 0.86 9.75 1.2V10.8C9.75 11.14 9.633 11.425 9.399 11.655C9.165 11.885 8.875 12 8.529 12H1.209C0.863 12 0.575 11.885 0.345 11.655C0.115 11.425 0 11.14 0 10.8ZM14.25 22.8V13.2C14.25 12.86 14.367 12.575 14.601 12.345C14.835 12.115 15.125 12 15.471 12H22.791C23.138 12 23.426 12.115 23.655 12.345C23.884 12.575 23.999 12.86 24 13.2V22.8C24 23.14 23.883 23.425 23.649 23.655C23.415 23.885 23.125 24 22.779 24H15.459C15.113 24 14.825 23.885 14.595 23.655C14.365 23.425 14.25 23.14 14.25 22.8ZM0 22.7745V17.7255C0 17.3685 0.117 17.075 0.351 16.845C0.585 16.615 0.875 16.5 1.221 16.5H8.541C8.888 16.5 9.176 16.615 9.405 16.845C9.634 17.075 9.749 17.3685 9.75 17.7255V22.7745C9.75 23.1325 9.633 23.426 9.399 23.655C9.165 23.885 8.875 24 8.529 24H1.209C0.863 24 0.575 23.885 0.345 23.655C0.115 23.425 0 23.1315 0 22.7745ZM1.5 10.5H8.25V1.5H1.5V10.5ZM15.75 22.5H22.5V13.5H15.75V22.5ZM15.75 6H22.5V1.5H15.75V6ZM1.5 22.5H8.25V18H1.5V22.5Z" fill="white"/>
</svg>
